<?xml version="1.0" encoding="utf-8"?>
<!-- Generator: Adobe Illustrator 16.0.0, SVG Export Plug-In . SVG Version: 6.00 Build 0)  -->
<!DOCTYPE svg PUBLIC "-//W3C//DTD SVG 1.1//EN" "http://www.w3.org/Graphics/SVG/1.1/DTD/svg11.dtd">
<svg version="1.1" id="Layer_1" xmlns="http://www.w3.org/2000/svg" xmlns:xlink="http://www.w3.org/1999/xlink" x="0px" y="0px"
	  viewBox="0 0 40 40" enable-background="new 0 0 40 40" xml:space="preserve" preserveAspectRatio="xMidYMid meet">
<path d="M40,33.453h-5.036v5.009h-2.172v-5.009h-5.011V31.28h5.011v-5.037h2.172v5.037H40V33.453z M29.538,11.948
	c0,1.785-1.445,3.232-3.23,3.232c-1.785,0-3.231-1.448-3.231-3.232c0-1.782,1.447-3.23,3.231-3.23
	C28.093,8.718,29.538,10.166,29.538,11.948z M25.73,35.385H3.692C1.654,35.385,0,33.731,0,31.691V5.232
	c0-2.041,1.654-3.693,3.692-3.693H33.23c2.039,0,3.691,1.653,3.691,3.693v18.959h-0.134H32.82V5.641H4.103v25.641H25.73v2.769
	V35.385z M29.733,29.23L24.096,20l-5.635,9.23H29.733z M16.711,28.162l3.161-5.178l-4.953-8.113L6.154,29.23h9.904L16.711,28.162z"
	/>
</svg>
